<svg height="480pt" viewBox="0 -24 480 480" width="480pt" xmlns="http://www.w3.org/2000/svg"><path d="m136 184-24 24v184h-32v-200l56-48zm0 0" fill="#cfdfe8"/><path d="m344 184 24 24v184h32v-200l-56-48zm0 0" fill="#cfdfe8"/><path d="m192 264h112v80h-112zm0 0" fill="#394d5c"/><path d="m272 304c0 13.253906-10.746094 24-24 24s-24-10.746094-24-24 10.746094-24 24-24 24 10.746094 24 24zm0 0" fill="#cdeef6"/><path d="m160 280h32v48h-32zm0 0" fill="#cfdfe8"/><path d="m24 56h80v64h-80zm0 0" fill="#ebb562"/><path d="m104 72h32v32h-32zm0 0" fill="#394d5c"/><path d="m344 120h-208v-64c33.722656-10.285156 68.746094-15.675781 104-16 35.253906.324219 70.277344 5.714844 104 16zm0 0" fill="#e97131"/><g fill="#f4c990"><path d="m160 48h16v32h-16zm0 0"/><path d="m192 40h16v40h-16zm0 0"/><path d="m304 48h16v32h-16zm0 0"/><path d="m272 40h16v40h-16zm0 0"/><path d="m224 80h32v16h-32zm0 0"/></g><path d="m56 8h16c8.835938 0 16 7.164062 16 16v32h-48v-32c0-8.835938 7.164062-16 16-16zm0 0" fill="#e97131"/><path d="m0 16h40v16h-40zm0 0" fill="#394d5c"/><path d="m88 16h40v16h-40zm0 0" fill="#394d5c"/><path d="m456 120h-80v-64h80zm0 0" fill="#ebb562"/><path d="m376 104h-32v-32h32zm0 0" fill="#394d5c"/><path d="m440 56h-48v-32c0-8.835938 7.164062-16 16-16h16c8.835938 0 16 7.164062 16 16zm0 0" fill="#e97131"/><path d="m440 16h40v16h-40zm0 0" fill="#394d5c"/><path d="m352 16h40v16h-40zm0 0" fill="#394d5c"/><path d="m168 120h144v48h-144zm0 0" fill="#394d5c"/><path d="m168 224h-32c-4.417969 0-8-3.582031-8-8v-96h16v88h24zm0 0" fill="#394d5c"/><path d="m168 200h144v32h-144zm0 0" fill="#e97131"/><path d="m232 232h16v32h-16zm0 0" fill="#cfdfe8"/><path d="m352 224h-40v-16h24v-88h16zm0 0" fill="#394d5c"/><path d="m194.34375 162.339844 24-24.003906 11.3125 11.3125-24 24.003906zm0 0" fill="#98a1a1"/><path d="m242.347656 162.339844 24-24 11.316406 11.3125-24.003906 24.003906zm0 0" fill="#98a1a1"/><path d="m48 392h96v32h-96zm0 0" fill="#a54300"/><path d="m432 424h-96v-32h96zm0 0" fill="#a54300"/><path d="m280 304c0-17.671875-14.328125-32-32-32s-32 14.328125-32 32 14.328125 32 32 32 32-14.328125 32-32zm-32 16c-8.835938 0-16-7.164062-16-16s7.164062-16 16-16 16 7.164062 16 16-7.164062 16-16 16zm0 0"/><path d="m224 80h32v16h-32zm0 0"/><path d="m424 0h-16c-10.132812.0429688-19.148438 6.445312-22.527344 16h-33.472656v16h32v16h-8c-4.417969 0-8 3.582031-8 8v8h-16v-13.769531l-5.472656-1.816407c-34.523438-10.605468-70.410156-16.132812-106.527344-16.414062-36.117188.28125-72.003906 5.808594-106.527344 16.414062l-5.472656 1.816407v13.769531h-16v-8c0-4.417969-3.582031-8-8-8h-8v-16h32v-16h-33.472656c-3.378906-9.554688-12.394532-15.9570312-22.527344-16h-16c-10.132812.0429688-19.148438 6.445312-22.527344 16h-33.472656v16h32v16h-8c-4.417969 0-8 3.582031-8 8v64c0 4.417969 3.582031 8 8 8h80c4.417969 0 8-3.582031 8-8v-8h16v28.320312l-56 48v195.679688h-32v48h112v-48h-32v-172.6875l8-8v12.6875c0 4.417969 3.582031 8 8 8h24v16h72v16h-48v16h-32v64h32v16h128v-96h-64v-16h72v-16h32v-20.6875l8 8v172.6875h-32v48h112v-48h-32v-195.679688l-56-48v-28.320312h16v8c0 4.417969 3.582031 8 8 8h80c4.417969 0 8-3.582031 8-8v-64c0-4.417969-3.582031-8-8-8h-8v-16h32v-16h-33.472656c-3.378906-9.554688-12.394532-15.9570312-22.527344-16zm-256 320v-32h16v32zm128 16h-96v-64h96zm-248-312c0-4.417969 3.582031-8 8-8h16c4.417969 0 8 3.582031 8 8v24h-32zm-16 88v-48h64v48zm80-16v-16h16v16zm24 304v16h-80v-16zm-32-195.3125v179.3125h-16v-188.320312l40-34.289063v19.296875zm200 19.3125h-128v-16h128zm32-16h-16v-16h-160v16h-16v-80h16v40c0 4.417969 3.582031 8 8 8h144c4.417969 0 8-3.582031 8-8v-40h16zm-69.65625-69.65625-21.65625 21.65625h-25.375l10.34375-10.34375-11.3125-11.3125-21.65625 21.65625h-20.6875v-32h128v32h-36.6875l10.34375-10.34375zm157.65625 261.65625v16h-80v-16zm-32-204.320312v188.320312h-16v-179.3125l-24-24v-19.296875zm-248-83.679688v-50.070312c3.695312-1.066407 9.183594-2.546876 16-4.144532v22.214844h16v-25.601562c4.976562-.941407 10.34375-1.855469 16-2.6875v28.289062h16v-30.3125c21.273438-2.25 42.726562-2.25 64 0v30.3125h16v-28.304688c5.65625.800782 11.023438 1.746094 16 2.6875v25.617188h16v-22.214844c6.816406 1.597656 12.304688 3.078125 16 4.144532v50.070312zm208-16v-16h16v16zm96 16h-64v-48h64zm-48-64v-24c0-4.417969 3.582031-8 8-8h16c4.417969 0 8 3.582031 8 8v24zm0 0"/></svg>